PathFileType	4	(X/Y/Z)	/Users/itak/Documents/Research/Walk-IL/dataset/trc/00080_00006.trc
DataRate	CameraRate	NumFrames	NumMarkers	Units	OrigDataRate	OrigDataStartFrame	OrigNumFrames
100.000000	100.000000	4	53	mm	100.000000	477	546
Frame#	Time	RPSI			LPSI			L3			STRN			T10			C7			CLAV			RBAK			LBAK			LSHO			LUPA			LAEL			LAOL			LWTS			LWPS			LFRA			LIFD			LHPS			LHTS			RSHO			RUPA			RAEL			RAOL			RWTS			RWPS			RFRA			RIFD			RHTS			RHPS			RBHD			LFHD			RFHD			LBHD			LHIP			RHIP			RASI			LASI			LKNE			LTHI			LANK			LTIP			LTOE			LMT1			LMT5			LHEE			RKNE			RTHI			RANK			RTIP			RTOE			RMT1			RMT5			RHEE			
		X1	Y1	Z1	X2	Y2	Z2	X3	Y3	Z3	X4	Y4	Z4	X5	Y5	Z5	X6	Y6	Z6	X7	Y7	Z7	X8	Y8	Z8	X9	Y9	Z9	X10	Y10	Z10	X11	Y11	Z11	X12	Y12	Z12	X13	Y13	Z13	X14	Y14	Z14	X15	Y15	Z15	X16	Y16	Z16	X17	Y17	Z17	X18	Y18	Z18	X19	Y19	Z19	X20	Y20	Z20	X21	Y21	Z21	X22	Y22	Z22	X23	Y23	Z23	X24	Y24	Z24	X25	Y25	Z25	X26	Y26	Z26	X27	Y27	Z27	X28	Y28	Z28	X29	Y29	Z29	X30	Y30	Z30	X31	Y31	Z31	X32	Y32	Z32	X33	Y33	Z33	X34	Y34	Z34	X35	Y35	Z35	X36	Y36	Z36	X37	Y37	Z37	X38	Y38	Z38	X39	Y39	Z39	X40	Y40	Z40	X41	Y41	Z41	X42	Y42	Z42	X43	Y43	Z43	X44	Y44	Z44	X45	Y45	Z45	X46	Y46	Z46	X47	Y47	Z47	X48	Y48	Z48	X49	Y49	Z49	X50	Y50	Z50	X51	Y51	Z51	X52	Y52	Z52	X53	Y53	Z53	

478	4.77	639.86083984375	1021.040222167969	-656.9739379882812	465.2839660644531	1012.456176757812	-648.59716796875	545.9702758789062	1072.395141601562	-654.7142333984375	557.4767456054688	1282.3251953125	-893.4423217773438	537.0252075195312	1204.385131835938	-629.8577270507812	542.0429077148438	1474.284301757812	-676.81787109375	556.1876220703125	1395.606079101562	-858.8377685546875	610.1412353515625	1332.000732421875	-613.5369873046875	440.1722106933594	1438.375854492188	-662.6638793945312	374.861083984375	1449.838623046875	-769.8455200195312	289.8807983398438	1325.283813476562	-762.4223022460938	263.4979248046875	1113.41259765625	-791.296630859375	346.2043151855469	1092.404296875	-723.1127319335938	324.7698669433594	879.9783935546875	-896.3649291992188	263.8319091796875	865.1323852539062	-839.7451782226562	253.1661071777344	1005.720458984375	-818.8628540039062	339.533935546875	694.5615234375	-920.2667846679688	265.3204956054688	787.8045043945312	-877.1241455078125	318.7431030273438	798.2310791015625	-923.9109497070312	720.3092651367188	1436.993774414062	-727.8167114257812	779.7239990234375	1367.95068359375	-712.0428466796875	819.369384765625	1107.995971679688	-680.9111938476562	729.617919921875	1082.385498046875	-712.7603759765625	809.88427734375	866.2758178710938	-844.6199951171875	852.1038818359375	846.7976684570312	-770.8569946289062	833.5308837890625	1027.884643554688	-697.0771484375	800.138916015625	680.5641479492188	-870.5161743164062	814.7512817382812	768.4865112304688	-876.0684814453125	861.5917358398438	761.8109130859375	-815.0882568359375	497.6216430664062	1653.389038085938	-700.4449462890625	624.3018188476562	1696.939331054688	-868.7816772460938	498.45947265625	1705.18505859375	-871.5965576171875	633.9984130859375	1638.91748046875	-707.9048461914062	373.1950073242188	954.7271118164062	-755.2020874023438	716.9299926757812	952.077392578125	-728.0128784179688	697.0222778320312	972.8140869140625	-851.7916870117188	427.3088684082031	969.1610107421875	-866.2428588867188	424.9127197265625	492.8561096191406	-842.2987670898438	387.747802734375	633.041015625	-807.024658203125	406.7890014648438	46.94624710083008	-687.11669921875	400.7747802734375	256.0364990234375	-757.4760131835938	402.42333984375	38.83387756347656	-893.5414428710938	458.7802124023438	37.16190719604492	-845.0606689453125	363.13427734375	39.61500930786133	-787.82421875	483.8309631347656	43.15373611450195	-636.8014526367188	670.8175048828125	507.8836975097656	-803.5313110351562	714.849365234375	776.0936279296875	-813.1447143554688	638.2623901367188	37.63823699951172	-687.5642700195312	668.697021484375	385.5505676269531	-776.8218383789062	612.131591796875	32.78586959838867	-908.3384399414062	569.4085083007812	39.65898132324219	-848.7459106445312	660.4302368164062	38.64904403686523	-809.4957275390625	577.8182983398438	40.55043411254883	-645.6373291015625	
479	4.78	639.8428955078125	1020.9013671875	-657.9788208007812	465.0725402832031	1012.499328613281	-649.3680419921875	545.7949829101562	1072.240478515625	-655.5194091796875	557.0863647460938	1282.267333984375	-894.19482421875	536.87353515625	1204.358520507812	-630.544189453125	541.80712890625	1474.19873046875	-677.563232421875	555.7828979492188	1395.523193359375	-859.5726928710938	610.0045166015625	1331.970581054688	-614.3434448242188	440.0023498535156	1438.224243164062	-663.2302856445312	374.5241088867188	1449.640625	-770.3786010742188	289.6647644042969	1324.886840820312	-762.9996948242188	263.6991271972656	1113.036254882812	-792.1621704101562	346.658447265625	1092.034545898438	-724.1428833007812	324.4583129882812	879.4505004882812	-897.2108764648438	263.8257751464844	864.7315673828125	-840.381591796875	253.2289886474609	1005.365966796875	-819.6455688476562	338.8088989257812	693.9783935546875	-921.0040283203125	264.8107299804688	787.4235229492188	-877.7023315429688	318.1676635742188	797.6791381835938	-924.6611328125	720.0993041992188	1436.936157226562	-728.7978515625	779.5424194335938	1367.8603515625	-713.1185302734375	818.6592407226562	1107.807006835938	-682.061767578125	728.69384765625	1082.27294921875	-713.5545654296875	808.7178955078125	866.1340942382812	-845.1181640625	851.0228271484375	846.28173828125	-771.0387573242188	832.6044921875	1027.677490234375	-698.0176391601562	798.83984375	679.6934814453125	-870.1749267578125	813.4583740234375	767.6041870117188	-875.856689453125	860.4010620117188	761.1170654296875	-814.9078369140625	497.1823425292969	1653.41943359375	-701.4070434570312	623.7855834960938	1696.77685546875	-869.8700561523438	497.9791870117188	1705.003540039062	-872.6395874023438	633.6265869140625	1638.98583984375	-708.933837890625	373.0806579589844	954.7427978515625	-755.9110717773438	716.6734008789062	951.996826171875	-728.8927612304688	696.7007446289062	972.7568969726562	-852.6737670898438	426.9609069824219	969.1231689453125	-867.0146484375	424.7514953613281	492.7908935546875	-842.1032104492188	387.7043762207031	633.0367431640625	-807.1002807617188	406.7909851074219	46.94413375854492	-687.1170654296875	400.6924743652344	256.0278930664062	-757.3585815429688	402.399658203125	38.84154891967773	-893.5322265625	458.7971801757812	37.13642501831055	-845.0528564453125	363.1678161621094	39.6219596862793	-787.8255004882812	483.8032531738281	43.11313629150391	-636.7833251953125	670.59619140625	507.8805847167969	-804.0448608398438	714.6837768554688	775.9498901367188	-813.8353271484375	638.2412109375	37.66672134399414	-687.5706787109375	668.4503784179688	385.4722900390625	-777.1046752929688	612.1431884765625	32.7854118347168	-908.3449096679688	569.3969116210938	39.65021514892578	-848.7578735351562	660.398681640625	38.66620254516602	-809.4978637695312	577.786865234375	40.55745697021484	-645.6365356445312	
480	4.79	639.8585205078125	1020.761352539062	-658.9414672851562	464.8946838378906	1012.525756835938	-650.0906982421875	545.6100463867188	1072.090209960938	-656.25634765625	556.7269897460938	1282.208129882812	-894.913330078125	536.7258911132812	1204.330688476562	-631.1840209960938	541.561767578125	1474.109130859375	-678.285400390625	555.3974609375	1395.442993164062	-860.2738037109375	609.8707275390625	1331.940795898438	-615.1129150390625	439.8595275878906	1438.091064453125	-663.7708129882812	374.199951171875	1449.448120117188	-770.928955078125	289.4834899902344	1324.501342773438	-763.6085205078125	263.9276428222656	1112.66943359375	-792.9873046875	347.1576538085938	1091.68603515625	-725.152587890625	324.176513671875	878.9331665039062	-898.0126342773438	263.8842468261719	864.3372802734375	-840.955322265625	253.3367767333984	1005.019104003906	-820.374755859375	338.1101684570312	693.399169921875	-921.6804809570312	264.3258361816406	787.0499267578125	-878.210205078125	317.6166076660156	797.1367797851562	-925.355224609375	719.8853759765625	1436.878662109375	-729.720947265625	779.3765869140625	1367.793579101562	-714.150634765625	817.9325561523438	1107.615844726562	-683.18115234375	727.7193603515625	1082.17822265625	-714.3171997070312	807.6271362304688	866.0989990234375	-845.6605834960938	849.9686889648438	845.796875	-771.2064819335938	831.674072265625	1027.487060546875	-698.9404296875	797.5706787109375	678.7991943359375	-869.7861328125	812.1953735351562	766.6983032226562	-875.5974731445312	859.278076171875	760.4586791992188	-814.739990234375	496.7284851074219	1653.448974609375	-702.3248291015625	623.3174438476562	1696.64111328125	-870.9299926757812	497.5062866210938	1704.8193359375	-873.63427734375	633.2700805664062	1639.052734375	-709.927001953125	373.0112915039062	954.7455444335938	-756.5755004882812	716.3982543945312	951.8863525390625	-729.6770629882812	696.3947143554688	972.6859130859375	-853.4940185546875	426.6228942871094	969.0942993164062	-867.7334594726562	424.6217041015625	492.7283020019531	-841.9783325195312	387.6887512207031	633.0181884765625	-807.2151489257812	406.77734375	46.95068740844727	-687.1223754882812	400.6270446777344	256.0152893066406	-757.282470703125	402.3717346191406	38.84996032714844	-893.5222778320312	458.8174743652344	37.11388397216797	-845.0449829101562	363.2002258300781	39.63076019287109	-787.82568359375	483.7785034179688	43.07828521728516	-636.765380859375	670.415283203125	507.9230041503906	-804.5732421875	714.5245971679688	775.7435913085938	-814.4273071289062	638.22314453125	37.69091796875	-687.5734252929688	668.218505859375	385.3935546875	-777.3906860351562	612.1561279296875	32.78512954711914	-908.3489990234375	569.3974609375	39.64213180541992	-848.7675170898438	660.3756713867188	38.68181228637695	-809.4967651367188	577.7608642578125	40.558349609375	-645.635986328125	
481	4.8	639.884765625	1020.628845214844	-659.8379516601562	464.7523193359375	1012.531555175781	-650.7669067382812	545.4136352539062	1071.94873046875	-656.9337768554688	556.3973999023438	1282.145629882812	-895.598876953125	536.5830688476562	1204.299194335938	-631.7815551757812	541.31201171875	1474.0185546875	-678.9859619140625	555.034912109375	1395.366577148438	-860.945556640625	609.7380981445312	1331.913208007812	-615.8465576171875	439.7491455078125	1437.978759765625	-664.2875366210938	373.8856811523438	1449.264282226562	-771.4962768554688	289.3323974609375	1324.132080078125	-764.2439575195312	264.17919921875	1112.318481445312	-793.7692260742188	347.6835021972656	1091.363159179688	-726.1301879882812	323.9281921386719	878.43408203125	-898.7655639648438	263.9764709472656	863.9571533203125	-841.468505859375	253.4909820556641	1004.681640625	-821.0481567382812	337.4580383300781	692.8375854492188	-922.2974243164062	263.897705078125	786.6839599609375	-878.6529541015625	317.1106262207031	796.6154174804688	-925.9966430664062	719.671875	1436.825927734375	-730.5892333984375	779.2219848632812	1367.74462890625	-715.1354370117188	817.1860961914062	1107.417724609375	-684.2589111328125	726.7091674804688	1082.113403320312	-715.0706176757812	806.5977783203125	866.0559692382812	-846.1895141601562	848.94287109375	845.3515014648438	-771.3642578125	830.7401733398438	1027.319458007812	-699.8401489257812	796.3362426757812	677.8892822265625	-869.35986328125	810.967041015625	765.7767333984375	-875.3007202148438	858.2139892578125	759.8334350585938	-814.5819702148438	496.2677612304688	1653.477294921875	-703.1995849609375	622.8975219726562	1696.5302734375	-871.9613037109375	497.0419616699219	1704.634399414062	-874.5816040039062	632.9252319335938	1639.117431640625	-710.8790283203125	372.9573974609375	954.733154296875	-757.1986083984375	716.1131591796875	951.75341796875	-730.3793334960938	696.1047973632812	972.6028442382812	-854.2533569335938	426.3040466308594	969.0721435546875	-868.4048461914062	424.5172424316406	492.6681213378906	-841.9255981445312	387.7034301757812	632.9828491210938	-807.36962890625	406.7561645507812	46.96078872680664	-687.1297607421875	400.5648803710938	255.9995422363281	-757.2587890625	402.3399963378906	38.85914993286133	-893.5123901367188	458.8388366699219	37.09450531005859	-845.0380859375	363.23095703125	39.6395378112793	-787.8251342773438	483.7565002441406	43.04837417602539	-636.74755859375	670.27294921875	508.0050659179688	-805.1109008789062	714.3716430664062	775.50537109375	-814.9484252929688	638.2079467773438	37.71189498901367	-687.5730590820312	668.0178833007812	385.3250427246094	-777.6871948242188	612.1719970703125	32.78485107421875	-908.3504028320312	569.404541015625	39.63553237915039	-848.7743530273438	660.3615112304688	38.69467544555664	-809.4931640625	577.7398071289062	40.55401611328125	-645.636474609375	
